<svg width="46" height="54" viewBox="0 0 46 54" fill="none" xmlns="http://www.w3.org/2000/svg">
<path d="M5.63742 54.0078C2.28107 54.0078 0 51.3114 0 47.2984V6.70942C0 2.69641 2.28107 0 5.63906 0C6.92201 0 8.27637 0.3981 9.63648 1.18281L41.5862 21.5146C43.9478 22.8764 45.2849 24.8406 45.2849 27.0076C45.2849 29.1729 43.9552 31.1339 41.537 32.5309L9.69476 52.7889C8.27391 53.6105 6.92119 54.0078 5.63742 54.0078ZM5.63906 3.28412C3.53529 3.28412 3.2833 5.68011 3.2833 6.71024V47.2992C3.2833 48.3293 3.53611 50.7253 5.63742 50.7253C6.32691 50.7253 7.1502 50.4684 7.99319 49.9825L39.8305 29.7245C41.2308 28.9144 42.0024 27.9376 42.0024 27.0084C42.0024 26.0768 41.2333 25.0984 39.8896 24.3227L7.93327 3.99085C7.15102 3.54104 6.32938 3.28412 5.63906 3.28412Z" fill="#80B349"/>
</svg>
