<svg width="375" height="150" viewBox="0 0 375 150" fill="none" xmlns="http://www.w3.org/2000/svg">
<path d="M290.988 40.9301C302.026 41.5169 311.449 33.0452 312.036 22.0081C312.622 10.9709 304.151 1.54778 293.113 0.960966C282.076 0.374148 272.653 8.84583 272.066 19.883C271.48 30.9202 279.951 40.3433 290.988 40.9301Z" fill="#80B349"/>
<path d="M251.745 80.0684C252.435 80.1051 253.024 79.5756 253.061 78.8858C253.097 78.1959 252.568 77.607 251.878 77.5703C251.188 77.5336 250.599 78.0631 250.562 78.7529C250.526 79.4428 251.055 80.0317 251.745 80.0684Z" fill="#80B349"/>
<path d="M286.557 111.802C290.598 112.017 294.047 108.915 294.262 104.875C294.477 100.835 291.376 97.385 287.335 97.1702C283.295 96.9554 279.845 100.057 279.631 104.097C279.416 108.137 282.517 111.587 286.557 111.802Z" fill="#80B349"/>
<path d="M179.502 85.888C183.05 86.0766 186.079 83.3535 186.267 79.8059C186.456 76.2582 183.733 73.2294 180.185 73.0407C176.638 72.8521 173.609 75.5752 173.42 79.1228C173.232 82.6705 175.955 85.6993 179.502 85.888Z" fill="#80B349"/>
<path d="M368.301 92.1706C372.144 92.375 375.426 89.425 375.63 85.5817C375.834 81.7384 372.884 78.4571 369.041 78.2528C365.198 78.0485 361.916 80.9984 361.712 84.8417C361.508 88.685 364.458 91.9663 368.301 92.1706Z" fill="#80B349"/>
<path d="M108.595 148.57C115.099 148.916 120.652 143.924 120.997 137.42C121.343 130.915 116.351 125.363 109.847 125.017C103.343 124.671 97.79 129.663 97.4442 136.167C97.0984 142.671 102.091 148.224 108.595 148.57Z" fill="#80B349"/>
<path d="M324.214 64.8822C329.831 65.1808 334.627 60.8693 334.926 55.2522C335.224 49.6351 330.913 44.8394 325.296 44.5408C319.679 44.2421 314.883 48.5536 314.584 54.1707C314.286 59.7878 318.597 64.5835 324.214 64.8822Z" fill="#80B349"/>
<path d="M150.282 16.16C153.534 16.3329 156.31 13.8368 156.483 10.5848C156.656 7.33273 154.16 4.55628 150.908 4.38338C147.656 4.21048 144.879 6.7066 144.706 9.95862C144.534 13.2106 147.03 15.9871 150.282 16.16Z" fill="#80B349"/>
<path d="M336.661 36.5751C345.333 37.0362 352.737 30.3798 353.198 21.7078C353.659 13.0357 347.003 5.63185 338.331 5.17078C329.659 4.70971 322.255 11.366 321.794 20.0381C321.333 28.7102 327.989 36.114 336.661 36.5751Z" fill="#80B349"/>
<path d="M211.566 24.6077C217.774 24.9377 223.074 20.1724 223.404 13.964C223.735 7.7556 218.969 2.4551 212.761 2.12502C206.552 1.79493 201.252 6.56025 200.922 12.7687C200.592 18.9771 205.357 24.2776 211.566 24.6077Z" fill="#80B349"/>
<path d="M123.89 85.0787C131.675 85.4926 138.322 79.517 138.736 71.7319C139.15 63.9468 133.174 57.3001 125.389 56.8862C117.604 56.4723 110.957 62.4478 110.544 70.233C110.13 78.0181 116.105 84.6648 123.89 85.0787Z" fill="#80B349"/>
<path d="M59.0623 143.394C65.1722 143.718 70.3885 139.029 70.7134 132.919C71.0382 126.809 66.3485 121.593 60.2387 121.268C54.1288 120.943 48.9124 125.633 48.5876 131.743C48.2627 137.852 52.9524 143.069 59.0623 143.394Z" fill="#80B349"/>
<mask id="mask0_1133_6139" style="mask-type:alpha" maskUnits="userSpaceOnUse" x="-27" y="25" width="99" height="99">
<path d="M-26.1234 73.9832C-25.8498 47.2736 -3.97558 25.8429 22.7341 26.1164C49.4437 26.39 70.8744 48.2642 70.6008 74.9739C70.3272 101.683 48.453 123.114 21.7434 122.841C-4.96625 122.567 -26.3969 100.693 -26.1234 73.9832Z" fill="#C4C4C4" stroke="black"/>
</mask>
<g mask="url(#mask0_1133_6139)">
<path d="M-55.9564 94.8003L52.3047 -11.2656L52.1636 -11.4097L-56.0975 94.6562L-55.9564 94.8003Z" fill="#80B349" stroke="#80B349" stroke-width="0.5"/>
<path d="M-52.9759 96.605L55.2852 -9.46094L55.144 -9.60499L-53.117 96.4609L-52.9759 96.605Z" fill="#80B349" stroke="#80B349" stroke-width="0.5"/>
<path d="M-50.0345 98.3862L58.2266 -7.67969L58.0854 -7.82374L-50.1757 98.2422L-50.0345 98.3862Z" fill="#80B349" stroke="#80B349" stroke-width="0.5"/>
<path d="M-47.0032 100.195L61.2578 -5.87109L61.1167 -6.01515L-47.1444 100.051L-47.0032 100.195Z" fill="#80B349" stroke="#80B349" stroke-width="0.5"/>
<path d="M-44.0072 102.003L64.2539 -4.0625L64.1128 -4.20655L-44.1483 101.859L-44.0072 102.003Z" fill="#80B349" stroke="#80B349" stroke-width="0.5"/>
<path d="M-41.0423 103.781L67.2188 -2.28516L67.0776 -2.42921L-41.1835 103.637L-41.0423 103.781Z" fill="#80B349" stroke="#80B349" stroke-width="0.5"/>
<path d="M-38.0696 105.609L70.1914 -0.457031L70.0503 -0.601082L-38.2108 105.465L-38.0696 105.609Z" fill="#80B349" stroke="#80B349" stroke-width="0.5"/>
<path d="M-35.0931 107.41L73.168 1.34375L73.0268 1.1997L-35.2342 107.266L-35.0931 107.41Z" fill="#80B349" stroke="#80B349" stroke-width="0.5"/>
<path d="M-32.0853 109.218L76.1758 3.15234L76.0346 3.00829L-32.2264 109.074L-32.0853 109.218Z" fill="#80B349" stroke="#80B349" stroke-width="0.5"/>
<path d="M-29.1009 111.015L79.1602 4.94922L79.019 4.80516L-29.242 110.871L-29.1009 111.015Z" fill="#80B349" stroke="#80B349" stroke-width="0.5"/>
<path d="M-26.1244 112.792L82.1367 6.72656L81.9956 6.58251L-26.2655 112.648L-26.1244 112.792Z" fill="#80B349" stroke="#80B349" stroke-width="0.5"/>
<path d="M-23.1439 114.593L85.1172 8.52734L84.9761 8.38329L-23.285 114.449L-23.1439 114.593Z" fill="#80B349" stroke="#80B349" stroke-width="0.5"/>
<path d="M-20.1322 116.429L88.1289 10.3633L87.9878 10.2192L-20.2733 116.285L-20.1322 116.429Z" fill="#80B349" stroke="#80B349" stroke-width="0.5"/>
<path d="M-17.1595 118.179L91.1016 12.1133L90.9604 11.9692L-17.3006 118.035L-17.1595 118.179Z" fill="#80B349" stroke="#80B349" stroke-width="0.5"/>
<path d="M-14.1556 120.015L94.1055 13.9492L93.9643 13.8052L-14.2967 119.871L-14.1556 120.015Z" fill="#80B349" stroke="#80B349" stroke-width="0.5"/>
<path d="M-11.1986 121.812L97.0625 15.7461L96.9214 15.602L-11.3397 121.668L-11.1986 121.812Z" fill="#80B349" stroke="#80B349" stroke-width="0.5"/>
<path d="M-8.20638 123.593L100.055 17.5273L99.9136 17.3833L-8.34751 123.449L-8.20638 123.593Z" fill="#80B349" stroke="#80B349" stroke-width="0.5"/>
<path d="M-5.24545 125.394L103.016 19.3281L102.874 19.1841L-5.38658 125.25L-5.24545 125.394Z" fill="#80B349" stroke="#80B349" stroke-width="0.5"/>
<path d="M-2.24935 127.179L106.012 21.1133L105.871 20.9692L-2.39048 127.035L-2.24935 127.179Z" fill="#80B349" stroke="#80B349" stroke-width="0.5"/>
<path d="M0.731116 129.003L108.992 22.9375L108.851 22.7934L0.589982 128.859L0.731116 129.003Z" fill="#80B349" stroke="#80B349" stroke-width="0.5"/>
<path d="M3.73893 130.851L112 24.7852L111.859 24.6411L3.59779 130.707L3.73893 130.851Z" fill="#80B349" stroke="#80B349" stroke-width="0.5"/>
<path d="M6.69596 132.589L114.957 26.5234L114.816 26.3794L6.55483 132.445L6.69596 132.589Z" fill="#80B349" stroke="#80B349" stroke-width="0.5"/>
<path d="M9.70377 134.433L117.965 28.3672L117.824 28.2231L9.56264 134.289L9.70377 134.433Z" fill="#80B349" stroke="#80B349" stroke-width="0.5"/>
<path d="M12.6686 136.199L120.93 30.1328L120.789 29.9888L12.5275 136.055L12.6686 136.199Z" fill="#80B349" stroke="#80B349" stroke-width="0.5"/>
<path d="M15.6725 138.027L123.934 31.9609L123.792 31.8169L15.5314 137.883L15.6725 138.027Z" fill="#80B349" stroke="#80B349" stroke-width="0.5"/>
<path d="M18.6608 139.8L126.922 33.7344L126.781 33.5903L18.5197 139.656L18.6608 139.8Z" fill="#80B349" stroke="#80B349" stroke-width="0.5"/>
<path d="M21.6296 141.605L129.891 35.5391L129.749 35.395L21.4884 141.461L21.6296 141.605Z" fill="#80B349" stroke="#80B349" stroke-width="0.5"/>
</g>
<ellipse cx="60.6198" cy="60.442" rx="60.6198" ry="60.442" transform="matrix(-0.187966 -0.982176 -0.982176 0.187966 110.113 73.9727)" fill="#80B349"/>
</svg>
