<svg width="50" height="50" viewBox="0 0 50 50" fill="none" xmlns="http://www.w3.org/2000/svg">
<path fill-rule="evenodd" clip-rule="evenodd" d="M24.9987 6.2487C14.6434 6.2487 6.2487 14.6434 6.2487 24.9987C6.2487 35.354 14.6434 43.7487 24.9987 43.7487C35.354 43.7487 43.7487 35.354 43.7487 24.9987C43.7487 14.6434 35.354 6.2487 24.9987 6.2487ZM2.08203 24.9987C2.08203 12.3422 12.3422 2.08203 24.9987 2.08203C37.6552 2.08203 47.9154 12.3422 47.9154 24.9987C47.9154 37.6552 37.6552 47.9154 24.9987 47.9154C12.3422 47.9154 2.08203 37.6552 2.08203 24.9987Z" fill="#80B349"/>
<path fill-rule="evenodd" clip-rule="evenodd" d="M25.0013 10.418C26.1519 10.418 27.0846 11.3507 27.0846 12.5013V23.7137L34.2663 27.3046C35.2955 27.8191 35.7126 29.0705 35.198 30.0997C34.6835 31.1288 33.4321 31.5459 32.4029 31.0314L24.0696 26.8647C23.3638 26.5118 22.918 25.7904 22.918 25.0013V12.5013C22.918 11.3507 23.8507 10.418 25.0013 10.418Z" fill="#80B349"/>
</svg>
