<svg width="45" height="39" viewBox="0 0 45 39" fill="none" xmlns="http://www.w3.org/2000/svg">
<path fill-rule="evenodd" clip-rule="evenodd" d="M9.11324 3.93734C5.65702 5.51719 3.125 9.27492 3.125 13.7559C3.125 18.3338 4.99837 21.8624 7.68393 24.8865C9.89734 27.3788 12.5767 29.4445 15.1898 31.459C15.8105 31.9375 16.4274 32.4131 17.0334 32.8909C18.1293 33.7548 19.1069 34.513 20.0492 35.0637C20.992 35.6146 21.7508 35.8661 22.3958 35.8661C23.0408 35.8661 23.7997 35.6146 24.7425 35.0637C25.6847 34.513 26.6623 33.7548 27.7582 32.8909C28.3643 32.4131 28.9812 31.9375 29.6018 31.459C32.2149 29.4445 34.8943 27.3788 37.1077 24.8865C39.7933 21.8624 41.6667 18.3338 41.6667 13.7559C41.6667 9.27492 39.1346 5.51719 35.6784 3.93734C32.3207 2.40252 27.809 2.80897 23.5216 7.26347C23.227 7.5695 22.8206 7.74243 22.3958 7.74243C21.9711 7.74243 21.5646 7.5695 21.2701 7.26347C16.9826 2.80897 12.471 2.40252 9.11324 3.93734ZM22.3958 4.00947C17.5791 -0.300056 12.1853 -0.902915 7.81409 1.09519C3.19732 3.20553 0 8.10576 0 13.7559C0 19.3091 2.31353 23.5454 5.34733 26.9615C7.77682 29.6972 10.7505 31.9868 13.3767 34.009C13.9721 34.4674 14.5495 34.912 15.0988 35.345C16.1659 36.1863 17.3116 37.0833 18.4725 37.7618C19.633 38.4399 20.9575 38.9911 22.3958 38.9911C23.8342 38.9911 25.1586 38.4399 26.3191 37.7618C27.4801 37.0833 28.6257 36.1863 29.6929 35.345C30.2421 34.912 30.8196 34.4674 31.4149 34.009C34.0412 31.9868 37.0148 29.6972 39.4443 26.9615C42.4781 23.5454 44.7917 19.3091 44.7917 13.7559C44.7917 8.10576 41.5943 3.20553 36.9776 1.09519C32.6063 -0.902915 27.2126 -0.300056 22.3958 4.00947Z" fill="#80B349"/>
</svg>
