<svg width="50" height="50" viewBox="0 0 50 50" fill="none" xmlns="http://www.w3.org/2000/svg">
<path d="M41.6669 16.667L29.1669 5.70871C28.021 4.68381 26.5376 4.11719 25.0002 4.11719C23.4628 4.11719 21.9794 4.68381 20.8335 5.70871L8.33353 16.667C7.6718 17.2589 7.14374 17.9849 6.78451 18.7967C6.42529 19.6086 6.24314 20.4876 6.2502 21.3754V39.5837C6.2502 41.2413 6.90868 42.831 8.08078 44.0031C9.25288 45.1752 10.8426 45.8337 12.5002 45.8337H37.5002C39.1578 45.8337 40.7475 45.1752 41.9196 44.0031C43.0917 42.831 43.7502 41.2413 43.7502 39.5837V21.3545C43.7543 20.4703 43.5707 19.5953 43.2116 18.7872C42.8525 17.9792 42.326 17.2565 41.6669 16.667ZM29.1669 41.667H20.8335V31.2504C20.8335 30.6978 21.053 30.1679 21.4437 29.7772C21.8344 29.3865 22.3643 29.167 22.9169 29.167H27.0835C27.6361 29.167 28.166 29.3865 28.5567 29.7772C28.9474 30.1679 29.1669 30.6978 29.1669 31.2504V41.667ZM39.5835 39.5837C39.5835 40.1362 39.364 40.6661 38.9733 41.0569C38.5826 41.4476 38.0527 41.667 37.5002 41.667H33.3335V31.2504C33.3335 29.5928 32.6751 28.0031 31.503 26.831C30.3308 25.6589 28.7411 25.0004 27.0835 25.0004H22.9169C21.2593 25.0004 19.6695 25.6589 18.4974 26.831C17.3253 28.0031 16.6669 29.5928 16.6669 31.2504V41.667H12.5002C11.9477 41.667 11.4178 41.4476 11.0271 41.0569C10.6364 40.6661 10.4169 40.1362 10.4169 39.5837V21.3545C10.4172 21.0587 10.4806 20.7664 10.6027 20.497C10.7249 20.2276 10.903 19.9873 11.1252 19.792L23.6252 8.85455C24.0054 8.52055 24.4941 8.33635 25.0002 8.33635C25.5063 8.33635 25.995 8.52055 26.3752 8.85455L38.8752 19.792C39.0974 19.9873 39.2755 20.2276 39.3977 20.497C39.5198 20.7664 39.5832 21.0587 39.5835 21.3545V39.5837Z" fill="#80B349"/>
</svg>
